{"title":"Entertainment (2014) DVDScr -X264- 1CD- Team IcTv Exclsuive","uid":10723737,"size":744554051,"categoryP":"video","categoryS":"movies","magnet":"?xt=urn:btih:c802eed7a70315ffec937fe4a8816243028fdc96&amp;dn=Entertainment+%282014%29+DVDScr+-X264-+1CD-+Team+IcTv+Exclsuive&amp;tr=udp%3A%2F%2Ftracker.openbittorrent.com%3A80&amp;tr=udp%3A%2F%2Fopen.demonii.com%3A1337&amp;tr=udp%3A%2F%2Ftracker.coppersurfer.tk%3A6969&amp;tr=udp%3A%2F%2Fexodus.desync.com%3A6969","seeders":3,"leechers":1,"uploader":"inovai","files":15,"time":1407523727,"description":"General\n\nComplete name : Entertainment (2014) DVDScr -X264- 1CD- Team IcTv Exclsuive.mkv\nFormat : Matroska\nFormat version : Version 2\nFile size : 700 MiB\nDuration : 2h 18mn\nOverall bit rate : 706 Kbps\nEncoded date : UTC 2014-08-08 13:18:19\n\nVideo\nID : 1\nFormat : AVC\nFormat/Info : Advanced Video Codec\nFormat profile : &lt;a class=&quot;__cf_email__&quot; href=&quot;/cdn-cgi/l/email-protection&quot; data-cfemail=&quot;3e765759567e720d100e&quot;&gt;[email&amp;#160;protected]&lt;/a&gt;&lt;script cf-hash='f9e31' type=&quot;text/javascript&quot;&gt;\n/* &lt;![CDATA[ */!function(){try{var t=&quot;currentScript&quot;in document?document.currentScript:function(){for(var t=document.getElementsByTagName(&quot;script&quot;),e=t.length;e--;)if(t[e].getAttribute(&quot;cf-hash&quot;))return t[e]}();if(t&amp;&amp;t.previousSibling){var e,r,n,i,c=t.previousSibling,a=c.getAttribute(&quot;data-cfemail&quot;);if(a){for(e=&quot;&quot;,r=parseInt(a.substr(0,2),16),n=2;a.length-n;n+=2)i=parseInt(a.substr(n,2),16)^r,e+=String.fromCharCode(i);e=document.createTextNode(e),c.parentNode.replaceChild(e,c)}}}catch(u){}}();/* ]]&gt; */&lt;/script&gt;\nFormat settings, CABAC : Yes\nFormat settings, ReFrames : 4 frames\nCodec ID : V_MPEG4/ISO/AVC\nDuration : 2h 18mn\nBit rate : 624 Kbps\nWidth : 640 pixels\nHeight : 272 pixels\nDisplay aspect ratio : 2.35:1\nFrame rate mode : Constant\nFrame rate : 29.970 fps\nColor space : YUV\nChroma subsampling : 4:2:0\nBit depth : 8 bits\nScan type : Progressive\nBits/(Pixel*Frame) : 0.120\nStream size : 606 MiB (87%)\nWriting library : x264 core 142 r2431 ac76440\n\n\nAudio\nID : 2\nFormat : MPEG Audio\nFormat version : Version 1\nFormat profile : Layer 3\nMode : Joint stereo\nMode extension : MS Stereo\nCodec ID : A_MPEG/L3\nCodec ID/Hint : MP3\nDuration : 2h 18mn\nBit rate mode : Constant\nBit rate : 80.0 Kbps\nChannel(s) : 2 channels\nSampling rate : 32.0 KHz\nCompression mode : Lossy\nStream size : 79.3 MiB (11%)\nWriting library : LAME3.99r\nEncoding settings : -m j -V 4 -q 2 -lowpass 13.5 -b 80\nDefault : Yes\nForced : No\n\n\nCredit To Orig Uploader","torrent":{"xt":"urn:btih:c802eed7a70315ffec937fe4a8816243028fdc96","amp;dn":"Entertainment+%282014%29+DVDScr+-X264-+1CD-+Team+IcTv+Exclsuive","amp;tr":["udp%3A%2F%2Ftracker.openbittorrent.com%3A80","udp%3A%2F%2Fopen.demonii.com%3A1337","udp%3A%2F%2Ftracker.coppersurfer.tk%3A6969","udp%3A%2F%2Fexodus.desync.com%3A6969"],"infoHash":"c802eed7a70315ffec937fe4a8816243028fdc96","infoHashBuffer":{"type":"Buffer","data":[200,2,238,215,167,3,21,255,236,147,127,228,168,129,98,67,2,143,220,150]},"announce":[],"urlList":[]}}